<svg width="213" height="74" viewBox="0 0 213 74" fill="none" xmlns="http://www.w3.org/2000/svg">
<g clip-path="url(#clip0_9208_5356)">
<path d="M0 23.302V21.022H8.02128V23.922C7.96719 27.2408 13.2391 27.6685 13.9218 24.6C14.1365 23.8706 14.1183 23.0927 13.8695 22.374C12.3171 18.486 1.70909 16.726 0.3615 10.666C0.0871427 9.33474 0.0701026 7.96361 0.311292 6.626C1.13872 1.76 5.43254 0 10.7627 0C15.0063 0 20.8545 0.984 20.8545 7.508V9.632H13.4036V7.768C13.6029 4.51399 8.45024 4.02377 7.86664 7.094C7.78289 7.61048 7.80063 8.13825 7.91886 8.648C8.7965 12.116 20.1315 13.982 21.3747 20.248C21.6854 21.8719 21.7024 23.5381 21.4249 25.168C20.6999 30.136 16.2494 32 10.8691 32C5.22167 32 0 29.98 0 23.302ZM97.1873 23.2V20.92H105.106V23.768C104.998 27.0572 110.246 27.529 110.946 24.492C111.161 23.7796 111.143 23.0178 110.896 22.316C109.394 18.486 98.8883 16.716 97.5447 10.666C97.2699 9.35239 97.2522 7.9983 97.4925 6.678C98.326 1.864 102.626 0.104 107.847 0.104C112.041 0.104 117.835 1.14 117.835 7.56V9.632H110.436V7.82C110.646 4.59555 105.532 4.07123 105.004 7.096C104.919 7.61234 104.936 8.14014 105.054 8.65C105.881 12.118 117.104 13.932 118.355 20.144C118.665 21.7505 118.682 23.3995 118.405 25.012C117.68 29.984 113.282 31.796 107.962 31.796C102.365 31.8 97.1873 29.774 97.1873 23.2ZM125.547 24.29C125.475 23.6359 125.458 22.9769 125.497 22.32V0.88H133.052V22.99C133.042 23.3707 133.059 23.7516 133.102 24.13C133.886 27.0267 138.013 27.0267 138.796 24.13C138.841 23.7517 138.858 23.3708 138.848 22.99V0.88H146.408V22.316C146.408 22.886 146.355 23.974 146.355 24.286C145.839 29.886 141.439 31.686 135.954 31.686C130.469 31.686 126.065 29.876 125.547 24.286V24.29ZM187.753 23.978C187.676 23.3215 187.641 22.6609 187.649 22V9.424C187.649 8.906 187.699 7.974 187.751 7.454C188.424 1.864 192.927 0.104 198.257 0.104C203.537 0.104 208.192 1.864 208.712 7.456C208.774 8.11075 208.791 8.76896 208.762 9.426V10.4H201.207V8.752C201.208 8.36967 201.174 7.98804 201.104 7.612C200.191 4.70854 196.065 4.70854 195.152 7.612C195.064 8.07327 195.03 8.54297 195.049 9.012V22.68C195.04 23.0607 195.058 23.4416 195.102 23.82C195.889 26.7996 200.632 26.7968 201.309 23.826C201.379 23.4502 201.36 23.0666 201.362 22.686V18.33H198.309V13.98H208.867V22C208.875 22.6576 208.839 23.3149 208.762 23.968C208.246 29.404 203.541 31.32 198.257 31.32C192.973 31.32 188.269 29.41 187.753 23.974V23.978ZM82.4401 30.756L82.2392 3.106L77.0577 30.756H69.5024L64.3771 3.106L64.1763 30.756H56.7193L57.3399 0.932H69.5024L73.2801 24.234L77.0577 0.932H89.2182L89.891 30.756H82.4401ZM42.6952 30.756L38.6584 3.106L34.5172 30.756H26.4457L31.9325 0.932H45.2337L50.7205 30.756H42.6952ZM169.174 30.446L161.671 5.644L162.085 30.444H154.734V0.932H165.808L172.837 24.958L172.433 0.932H179.834V30.448L169.174 30.446Z" fill="white"/>
</g>
<g clip-path="url(#clip1_9208_5356)">
<path d="M38.9856 67.528C37.4896 67.528 36.0523 67.3373 34.6736 66.956C33.3243 66.5453 32.0923 66.0027 30.9776 65.328C29.8923 64.624 28.9976 63.8467 28.2936 62.996C27.5896 62.116 27.1496 61.1773 26.9736 60.18L33.9696 58.2C34.2923 59.0507 34.8496 59.7987 35.6416 60.444C36.4629 61.06 37.4896 61.3827 38.7216 61.412C39.9243 61.4413 40.9216 61.1627 41.7136 60.576C42.5349 59.9893 42.9456 59.2267 42.9456 58.288C42.9456 57.5547 42.6523 56.9093 42.0656 56.352C41.5083 55.7947 40.7016 55.3693 39.6456 55.076L35.2896 53.976C33.7643 53.5947 32.4296 52.9933 31.2856 52.172C30.1709 51.3507 29.2909 50.3533 28.6456 49.18C28.0296 47.9773 27.7216 46.6133 27.7216 45.088C27.7216 42.1253 28.7043 39.8227 30.6696 38.18C32.6349 36.508 35.4069 35.672 38.9856 35.672C40.9509 35.672 42.6669 35.9507 44.1336 36.508C45.6003 37.036 46.8469 37.828 47.8736 38.884C48.9296 39.94 49.7656 41.26 50.3816 42.844L43.4296 44.912C43.1949 44.12 42.6816 43.4013 41.8896 42.756C41.1269 42.1107 40.1296 41.788 38.8976 41.788C37.6656 41.788 36.6976 42.0667 35.9936 42.624C35.3189 43.1813 34.9816 43.988 34.9816 45.044C34.9816 45.7773 35.2603 46.3933 35.8176 46.892C36.3749 47.3613 37.1376 47.7133 38.1056 47.948L42.4616 49.048C44.9549 49.664 46.8909 50.8227 48.2696 52.524C49.6776 54.196 50.3816 56.1027 50.3816 58.244C50.3816 60.18 49.9269 61.8373 49.0176 63.216C48.1376 64.5947 46.8469 65.6653 45.1456 66.428C43.4443 67.1613 41.3909 67.528 38.9856 67.528ZM54.9373 67V36.2H62.0213V60.488H75.1333V67H54.9373ZM78.9139 67V36.2H85.9979V67H78.9139ZM105.88 67.528C102.83 67.528 100.131 66.8533 97.7844 65.504C95.467 64.1253 93.6337 62.248 92.2844 59.872C90.9644 57.4667 90.3044 54.7093 90.3044 51.6C90.3044 48.4907 90.9644 45.748 92.2844 43.372C93.6337 40.9667 95.467 39.0893 97.7844 37.74C100.131 36.3613 102.83 35.672 105.88 35.672C108.11 35.672 110.148 36.068 111.996 36.86C113.874 37.6227 115.487 38.708 116.836 40.116C118.215 41.524 119.271 43.152 120.004 45L113.36 47.244C112.92 46.2173 112.319 45.3227 111.556 44.56C110.823 43.7973 109.972 43.2107 109.004 42.8C108.066 42.3893 107.024 42.184 105.88 42.184C104.267 42.184 102.83 42.58 101.568 43.372C100.307 44.164 99.3244 45.2787 98.6204 46.716C97.9164 48.124 97.5644 49.752 97.5644 51.6C97.5644 53.448 97.9164 55.0907 98.6204 56.528C99.3537 57.936 100.351 59.0507 101.612 59.872C102.903 60.664 104.37 61.06 106.012 61.06C107.215 61.06 108.286 60.84 109.224 60.4C110.163 59.96 110.97 59.344 111.644 58.552C112.348 57.76 112.95 56.8507 113.448 55.824L120.092 58.068C119.388 59.9453 118.347 61.6027 116.968 63.04C115.59 64.448 113.962 65.548 112.084 66.34C110.207 67.132 108.139 67.528 105.88 67.528ZM123.945 67V36.2H144.009V42.712H131.029V48.344H141.897V54.636H131.029V60.488H144.229V67H123.945ZM149.769 67V36.2H161.869C164.099 36.2 166.079 36.64 167.809 37.52C169.54 38.3707 170.889 39.5733 171.857 41.128C172.855 42.6533 173.353 44.4133 173.353 46.408C173.353 48.4027 172.855 50.1773 171.857 51.732C170.86 53.2867 169.481 54.504 167.721 55.384C165.991 56.2347 163.996 56.66 161.737 56.66H156.853V67H149.769ZM166.489 67L159.537 54.768L164.861 50.852L174.585 67H166.489ZM156.853 50.148H161.649C162.471 50.148 163.204 49.9867 163.849 49.664C164.495 49.3413 164.993 48.9013 165.345 48.344C165.727 47.7573 165.917 47.112 165.917 46.408C165.917 45.3227 165.507 44.428 164.685 43.724C163.893 43.02 162.837 42.668 161.517 42.668H156.853V50.148Z" fill="white"/>
</g>
<g clip-path="url(#clip2_9208_5356)">
<path d="M44.9856 69.528C43.4896 69.528 42.0523 69.3373 40.6736 68.956C39.3243 68.5453 38.0923 68.0027 36.9776 67.328C35.8923 66.624 34.9976 65.8467 34.2936 64.996C33.5896 64.116 33.1496 63.1773 32.9736 62.18L39.9696 60.2C40.2923 61.0507 40.8496 61.7987 41.6416 62.444C42.4629 63.06 43.4896 63.3827 44.7216 63.412C45.9243 63.4413 46.9216 63.1627 47.7136 62.576C48.5349 61.9893 48.9456 61.2267 48.9456 60.288C48.9456 59.5547 48.6523 58.9093 48.0656 58.352C47.5083 57.7947 46.7016 57.3693 45.6456 57.076L41.2896 55.976C39.7643 55.5947 38.4296 54.9933 37.2856 54.172C36.1709 53.3507 35.2909 52.3533 34.6456 51.18C34.0296 49.9773 33.7216 48.6133 33.7216 47.088C33.7216 44.1253 34.7043 41.8227 36.6696 40.18C38.6349 38.508 41.4069 37.672 44.9856 37.672C46.9509 37.672 48.6669 37.9507 50.1336 38.508C51.6003 39.036 52.8469 39.828 53.8736 40.884C54.9296 41.94 55.7656 43.26 56.3816 44.844L49.4296 46.912C49.1949 46.12 48.6816 45.4013 47.8896 44.756C47.1269 44.1107 46.1296 43.788 44.8976 43.788C43.6656 43.788 42.6976 44.0667 41.9936 44.624C41.3189 45.1813 40.9816 45.988 40.9816 47.044C40.9816 47.7773 41.2603 48.3933 41.8176 48.892C42.3749 49.3613 43.1376 49.7133 44.1056 49.948L48.4616 51.048C50.9549 51.664 52.8909 52.8227 54.2696 54.524C55.6776 56.196 56.3816 58.1027 56.3816 60.244C56.3816 62.18 55.9269 63.8373 55.0176 65.216C54.1376 66.5947 52.8469 67.6653 51.1456 68.428C49.4443 69.1613 47.3909 69.528 44.9856 69.528ZM60.9373 69V38.2H68.0213V62.488H81.1333V69H60.9373ZM84.9139 69V38.2H91.9979V69H84.9139ZM111.88 69.528C108.83 69.528 106.131 68.8533 103.784 67.504C101.467 66.1253 99.6337 64.248 98.2844 61.872C96.9644 59.4667 96.3044 56.7093 96.3044 53.6C96.3044 50.4907 96.9644 47.748 98.2844 45.372C99.6337 42.9667 101.467 41.0893 103.784 39.74C106.131 38.3613 108.83 37.672 111.88 37.672C114.11 37.672 116.148 38.068 117.996 38.86C119.874 39.6227 121.487 40.708 122.836 42.116C124.215 43.524 125.271 45.152 126.004 47L119.36 49.244C118.92 48.2173 118.319 47.3227 117.556 46.56C116.823 45.7973 115.972 45.2107 115.004 44.8C114.066 44.3893 113.024 44.184 111.88 44.184C110.267 44.184 108.83 44.58 107.568 45.372C106.307 46.164 105.324 47.2787 104.62 48.716C103.916 50.124 103.564 51.752 103.564 53.6C103.564 55.448 103.916 57.0907 104.62 58.528C105.354 59.936 106.351 61.0507 107.612 61.872C108.903 62.664 110.37 63.06 112.012 63.06C113.215 63.06 114.286 62.84 115.224 62.4C116.163 61.96 116.97 61.344 117.644 60.552C118.348 59.76 118.95 58.8507 119.448 57.824L126.092 60.068C125.388 61.9453 124.347 63.6027 122.968 65.04C121.59 66.448 119.962 67.548 118.084 68.34C116.207 69.132 114.139 69.528 111.88 69.528ZM129.945 69V38.2H150.009V44.712H137.029V50.344H147.897V56.636H137.029V62.488H150.229V69H129.945ZM155.769 69V38.2H167.869C170.099 38.2 172.079 38.64 173.809 39.52C175.54 40.3707 176.889 41.5733 177.857 43.128C178.855 44.6533 179.353 46.4133 179.353 48.408C179.353 50.4027 178.855 52.1773 177.857 53.732C176.86 55.2867 175.481 56.504 173.721 57.384C171.991 58.2347 169.996 58.66 167.737 58.66H162.853V69H155.769ZM172.489 69L165.537 56.768L170.861 52.852L180.585 69H172.489ZM162.853 52.148H167.649C168.471 52.148 169.204 51.9867 169.849 51.664C170.495 51.3413 170.993 50.9013 171.345 50.344C171.727 49.7573 171.917 49.112 171.917 48.408C171.917 47.3227 171.507 46.428 170.685 45.724C169.893 45.02 168.837 44.668 167.517 44.668H162.853V52.148Z" fill="white"/>
</g>
<defs>
<clipPath id="clip0_9208_5356">
<rect width="209" height="32" fill="white"/>
</clipPath>
<clipPath id="clip1_9208_5356">
<rect width="151" height="20" fill="white" transform="translate(25 32)"/>
</clipPath>
<clipPath id="clip2_9208_5356">
<rect width="151" height="20" fill="white" transform="translate(31 54)"/>
</clipPath>
</defs>
</svg>
