<svg width="213" height="72" viewBox="0 0 213 72" fill="none" xmlns="http://www.w3.org/2000/svg">
<g clip-path="url(#clip0_9208_5356)">
<path d="M0 23.302V21.022H8.02128V23.922C7.96719 27.2408 13.2391 27.6685 13.9218 24.6C14.1365 23.8706 14.1183 23.0927 13.8695 22.374C12.3171 18.486 1.70909 16.726 0.3615 10.666C0.0871427 9.33474 0.0701026 7.96361 0.311292 6.626C1.13872 1.76 5.43254 0 10.7627 0C15.0063 0 20.8545 0.984 20.8545 7.508V9.632H13.4036V7.768C13.6029 4.51399 8.45024 4.02377 7.86664 7.094C7.78289 7.61048 7.80063 8.13825 7.91886 8.648C8.7965 12.116 20.1315 13.982 21.3747 20.248C21.6854 21.8719 21.7024 23.5381 21.4249 25.168C20.6999 30.136 16.2494 32 10.8691 32C5.22167 32 0 29.98 0 23.302ZM97.1873 23.2V20.92H105.106V23.768C104.998 27.0572 110.246 27.529 110.946 24.492C111.161 23.7796 111.143 23.0178 110.896 22.316C109.394 18.486 98.8883 16.716 97.5447 10.666C97.2699 9.35239 97.2522 7.9983 97.4925 6.678C98.326 1.864 102.626 0.104 107.847 0.104C112.041 0.104 117.835 1.14 117.835 7.56V9.632H110.436V7.82C110.646 4.59555 105.532 4.07123 105.004 7.096C104.919 7.61234 104.936 8.14014 105.054 8.65C105.881 12.118 117.104 13.932 118.355 20.144C118.665 21.7505 118.682 23.3995 118.405 25.012C117.68 29.984 113.282 31.796 107.962 31.796C102.365 31.8 97.1873 29.774 97.1873 23.2ZM125.547 24.29C125.475 23.6359 125.458 22.9769 125.497 22.32V0.88H133.052V22.99C133.042 23.3707 133.059 23.7516 133.102 24.13C133.886 27.0267 138.013 27.0267 138.796 24.13C138.841 23.7517 138.858 23.3708 138.848 22.99V0.88H146.407V22.316C146.407 22.886 146.355 23.974 146.355 24.286C145.839 29.886 141.439 31.686 135.954 31.686C130.469 31.686 126.065 29.876 125.547 24.286V24.29ZM187.753 23.978C187.676 23.3215 187.641 22.6609 187.649 22V9.424C187.649 8.906 187.699 7.974 187.751 7.454C188.424 1.864 192.927 0.104 198.257 0.104C203.537 0.104 208.192 1.864 208.712 7.456C208.774 8.11075 208.791 8.76896 208.762 9.426V10.4H201.207V8.752C201.208 8.36967 201.174 7.98804 201.104 7.612C200.191 4.70854 196.065 4.70854 195.152 7.612C195.064 8.07327 195.03 8.54297 195.049 9.012V22.68C195.04 23.0607 195.058 23.4416 195.102 23.82C195.889 26.7996 200.632 26.7968 201.309 23.826C201.379 23.4502 201.36 23.0666 201.362 22.686V18.33H198.309V13.98H208.867V22C208.875 22.6575 208.839 23.3149 208.762 23.968C208.246 29.404 203.541 31.32 198.257 31.32C192.973 31.32 188.269 29.41 187.753 23.974V23.978ZM82.4401 30.756L82.2392 3.106L77.0577 30.756H69.5024L64.3771 3.106L64.1763 30.756H56.7193L57.3399 0.932H69.5024L73.2801 24.234L77.0577 0.932H89.2182L89.891 30.756H82.4401ZM42.6952 30.756L38.6584 3.106L34.5172 30.756H26.4457L31.9325 0.932H45.2337L50.7205 30.756H42.6952ZM169.174 30.446L161.671 5.644L162.085 30.444H154.734V0.932H165.808L172.837 24.958L172.433 0.932H179.834V30.448L169.174 30.446Z" fill="white"/>
</g>
<g clip-path="url(#clip1_9208_5356)">
<path d="M6 23.302V21.022H14.0213V23.922C13.9672 27.2408 19.2391 27.6685 19.9218 24.6C20.1365 23.8706 20.1183 23.0927 19.8695 22.374C18.3171 18.486 7.70909 16.726 6.3615 10.666C6.08714 9.33474 6.0701 7.96361 6.31129 6.626C7.13872 1.76 11.4325 0 16.7627 0C21.0063 0 26.8545 0.984 26.8545 7.508V9.632H19.4036V7.768C19.6029 4.51399 14.4502 4.02377 13.8666 7.094C13.7829 7.61048 13.8006 8.13825 13.9189 8.648C14.7965 12.116 26.1315 13.982 27.3747 20.248C27.6854 21.8719 27.7024 23.5381 27.4249 25.168C26.6999 30.136 22.2494 32 16.8691 32C11.2217 32 6 29.98 6 23.302ZM103.187 23.2V20.92H111.106V23.768C110.998 27.0572 116.246 27.529 116.946 24.492C117.161 23.7796 117.143 23.0178 116.896 22.316C115.394 18.486 104.888 16.716 103.545 10.666C103.27 9.35239 103.252 7.9983 103.493 6.678C104.326 1.864 108.626 0.104 113.847 0.104C118.041 0.104 123.835 1.14 123.835 7.56V9.632H116.436V7.82C116.646 4.59555 111.532 4.07123 111.004 7.096C110.919 7.61234 110.936 8.14014 111.054 8.65C111.881 12.118 123.104 13.932 124.355 20.144C124.665 21.7505 124.682 23.3995 124.405 25.012C123.68 29.984 119.282 31.796 113.962 31.796C108.365 31.8 103.187 29.774 103.187 23.2ZM131.547 24.29C131.475 23.6359 131.458 22.9769 131.497 22.32V0.88H139.052V22.99C139.042 23.3707 139.059 23.7516 139.102 24.13C139.886 27.0267 144.013 27.0267 144.796 24.13C144.841 23.7517 144.858 23.3708 144.848 22.99V0.88H152.407V22.316C152.407 22.886 152.355 23.974 152.355 24.286C151.839 29.886 147.439 31.686 141.954 31.686C136.469 31.686 132.065 29.876 131.547 24.286V24.29ZM193.753 23.978C193.676 23.3215 193.641 22.6609 193.649 22V9.424C193.649 8.906 193.699 7.974 193.751 7.454C194.424 1.864 198.927 0.104 204.257 0.104C209.537 0.104 214.192 1.864 214.712 7.456C214.774 8.11075 214.791 8.76896 214.762 9.426V10.4H207.207V8.752C207.208 8.36967 207.174 7.98804 207.104 7.612C206.191 4.70854 202.065 4.70854 201.152 7.612C201.064 8.07327 201.03 8.54297 201.049 9.012V22.68C201.04 23.0607 201.058 23.4416 201.102 23.82C201.889 26.7996 206.632 26.7968 207.309 23.826C207.379 23.4502 207.36 23.0666 207.362 22.686V18.33H204.309V13.98H214.867V22C214.875 22.6575 214.839 23.3149 214.762 23.968C214.246 29.404 209.541 31.32 204.257 31.32C198.973 31.32 194.269 29.41 193.753 23.974V23.978ZM88.4401 30.756L88.2392 3.106L83.0577 30.756H75.5024L70.3771 3.106L70.1763 30.756H62.7193L63.3399 0.932H75.5024L79.2801 24.234L83.0577 0.932H95.2182L95.891 30.756H88.4401ZM48.6952 30.756L44.6584 3.106L40.5172 30.756H32.4457L37.9325 0.932H51.2337L56.7205 30.756H48.6952ZM175.174 30.446L167.671 5.644L168.085 30.444H160.734V0.932H171.808L178.837 24.958L178.433 0.932H185.834V30.448L175.174 30.446Z" fill="white"/>
</g>
<path d="M62.1864 63.384C61.0557 63.384 59.9997 63.2453 59.0184 62.968C58.037 62.6907 57.1624 62.3067 56.3944 61.816C55.6264 61.304 54.9864 60.7387 54.4744 60.12C53.9837 59.5013 53.6637 58.8507 53.5144 58.168L57.8024 56.888C58.0797 57.6133 58.5704 58.2427 59.2744 58.776C59.9784 59.288 60.8637 59.5547 61.9304 59.576C63.061 59.5973 63.9784 59.352 64.6824 58.84C65.4077 58.328 65.7704 57.6667 65.7704 56.856C65.7704 56.152 65.4824 55.5653 64.9064 55.096C64.3517 54.6053 63.5837 54.232 62.6024 53.976L59.6904 53.208C58.6024 52.9307 57.6424 52.5147 56.8104 51.96C55.9784 51.384 55.3277 50.68 54.8584 49.848C54.389 49.016 54.1544 48.0453 54.1544 46.936C54.1544 44.824 54.8477 43.1813 56.2344 42.008C57.6424 40.8133 59.6264 40.216 62.1864 40.216C63.6157 40.216 64.8637 40.4293 65.9304 40.856C67.0184 41.2613 67.925 41.848 68.6504 42.616C69.3757 43.384 69.9304 44.2907 70.3144 45.336L66.0584 46.648C65.8024 45.9227 65.333 45.304 64.6504 44.792C63.9677 44.28 63.1037 44.024 62.0584 44.024C60.9917 44.024 60.149 44.2693 59.5304 44.76C58.933 45.2507 58.6344 45.944 58.6344 46.84C58.6344 47.544 58.869 48.0987 59.3384 48.504C59.829 48.9093 60.4904 49.2187 61.3224 49.432L64.2664 50.168C66.1864 50.6373 67.6797 51.48 68.7464 52.696C69.813 53.912 70.3464 55.2667 70.3464 56.76C70.3464 58.0827 70.0264 59.2453 69.3864 60.248C68.7464 61.2293 67.8184 61.9973 66.6024 62.552C65.3864 63.1067 63.9144 63.384 62.1864 63.384ZM74.1039 63V40.6H78.4879V59H88.3439V63H74.1039ZM91.2914 63V40.6H95.6754V63H91.2914ZM110.429 63.384C108.253 63.384 106.323 62.8933 104.637 61.912C102.952 60.9093 101.629 59.544 100.669 57.816C99.7094 56.0667 99.2294 54.0613 99.2294 51.8C99.2294 49.5387 99.7094 47.544 100.669 45.816C101.629 44.0667 102.941 42.7013 104.605 41.72C106.291 40.7173 108.221 40.216 110.397 40.216C111.933 40.216 113.363 40.4933 114.685 41.048C116.008 41.5813 117.16 42.3387 118.141 43.32C119.144 44.28 119.912 45.3893 120.445 46.648L116.381 48.152C116.019 47.3627 115.539 46.68 114.941 46.104C114.344 45.5067 113.661 45.048 112.893 44.728C112.125 44.3867 111.293 44.216 110.397 44.216C109.096 44.216 107.933 44.5467 106.909 45.208C105.907 45.848 105.117 46.7333 104.541 47.864C103.987 48.9947 103.709 50.3067 103.709 51.8C103.709 53.2933 103.997 54.616 104.573 55.768C105.149 56.8987 105.949 57.7947 106.973 58.456C107.997 59.096 109.171 59.416 110.493 59.416C111.411 59.416 112.243 59.2453 112.989 58.904C113.757 58.5413 114.429 58.0507 115.005 57.432C115.603 56.8133 116.083 56.0987 116.445 55.288L120.509 56.76C119.976 58.0613 119.208 59.2133 118.205 60.216C117.224 61.2187 116.072 61.9973 114.749 62.552C113.427 63.1067 111.987 63.384 110.429 63.384ZM123.729 63V40.6H137.905V44.6H128.113V49.688H136.561V53.592H128.113V59H138.033V63H123.729ZM142.573 63V40.6H150.893C152.471 40.6 153.869 40.9093 155.085 41.528C156.301 42.1467 157.25 43 157.933 44.088C158.615 45.1547 158.957 46.4027 158.957 47.832C158.957 49.24 158.594 50.4987 157.869 51.608C157.165 52.696 156.194 53.5493 154.957 54.168C153.719 54.7653 152.311 55.064 150.733 55.064H146.957V63H142.573ZM154.893 63L149.709 54.008L153.069 51.608L159.853 63H154.893ZM146.957 51.064H150.925C151.586 51.064 152.173 50.9253 152.685 50.648C153.218 50.3707 153.634 49.9867 153.933 49.496C154.253 49.0053 154.413 48.4507 154.413 47.832C154.413 46.872 154.061 46.0933 153.357 45.496C152.674 44.8987 151.789 44.6 150.701 44.6H146.957V51.064Z" fill="white"/>
<defs>
<clipPath id="clip0_9208_5356">
<rect width="209" height="16" fill="white"/>
</clipPath>
<clipPath id="clip1_9208_5356">
<rect width="209" height="16" fill="white" transform="translate(4 16)"/>
</clipPath>
</defs>
</svg>
